<?xml version="1.0" encoding="UTF-8"?>
<svg width="700pt" height="400pt" version="1.1" viewBox="0 130 700 300" xmlns="http://www.w3.org/2000/svg">
 <g>
  <path d="m515.29 127.71c-3.3594 6.9453-6.0508 14.449-8.9609 21.621-2.9141 7.168-6.0508 14.449-8.625 21.617-2.6914 7.5078-4.3711 14.898-6.1641 22.629-0.44531 1.6797-0.89453 3.6953-1.1172 5.3789-0.89453-3.0234-6.1602-3.9219-6.3867 0-0.11328 4.1445 0 8.3984 1.0078 12.547 1.1211 4.3672 2.8008 8.7383 3.4727 13.332 0.55859 4.8125-0.33594 10.527-0.89453 15.344-0.67188 4.8164-1.793 9.4102-2.5781 14.227-1.5664 8.9609-0.67188 17.699 2.1289 26.215 1.5664 4.8164 3.1367 9.1836 3.6953 14 0.55859 5.2656-0.11328 10.531-1.793 15.348-5.6016 17.25-11.988 34.84-20.387 50.969-3.4727 6.7227-10.418 25.992-20.836 22.07 0.67188-1.5664 1.2305-2.8008 2.0156-4.1445 2.5781-5.2656 5.3789-10.305 7.6172-15.793 2.2422-5.2656 2.9141-10.754 4.0312-16.355 0.89453-5.4883 1.9062-10.754 2.0156-16.355 0-3.4727 0.67188-6.3867 2.2422-9.1875 1.5664-2.5781 3.0234-4.8164 3.6953-7.8398 0.22656-1.9062-2.4609-3.1367-3.4688-1.457-2.1289 3.2461-4.1445 6.6094-5.7148 10.305-1.9023 4.1445-0.89453 9.6328-1.3438 14.004-0.89453 10.082-3.9219 20.164-8.2891 29.352-3.6953 7.8398-7.8398 15.57-11.762 23.188-1.6797 2.8008-4.0352 5.2656-7.1719 6.2734-1.3438 0.44531-5.8242 1.3438-6.7188-0.44922 0-0.22266-0.11328-0.44922-0.22266-0.44922 0.44531-2.8008 0.78125-5.375 1.3438-8.0664 2.2383-10.305 5.9336-19.824 8.7344-29.906 2.8008-9.6328 2.0156-19.941 5.0391-29.352 2.8008-9.1875 8.625-16.805 11.988-25.652 0.78516-2.3516-2.3516-4.8164-3.9219-2.3516-4.8125 7.3906-9.5195 15.121-12.77 23.188-3.6953 9.6328-3.582 19.715-5.4883 29.574-1.0078 4.5938-2.9141 8.9609-4.4805 13.332-1.5664 5.0391-2.9141 10.082-4.1445 15.121-1.1211 4.3672-1.6797 8.9609-1.793 13.332-0.11328 2.5781 0 5.7148-0.67188 8.2891-0.78516 0-1.5664 0.22266-2.1289 0.67188-1.5664 1.1211-4.4805 0.22266-6.2734-0.22656-3.25-1.1211-7.2812-2.2422-9.2969-5.2656-1.6797-2.2383-1.457-6.1602-1.2305-8.5117 0.10938-3.25 0.33594-6.1602 0.67188-9.1875 4.5938-11.203 6.3867-23.188 9.2969-34.84 1.9023-7.168 4.7031-14.223 7.2812-21.168 2.4648-6.3867 4.5938-13.555 3.9219-20.387-0.33594-3.25-4.8164-3.25-5.4922-0.22656-1.3438 7.0586-2.5742 13.555-5.1523 20.164-2.5742 6.6094-4.8164 12.883-6.6094 19.715-3.2461 12.66-5.9375 25.766-9.0742 38.871-4.4805 0.22656-8.0625 2.9141-12.77 0.44922-4.5938-2.3516-6.2734-7.168-5.8242-11.984 1.0078-10.531 0.33594-20.836 1.5664-31.254 0.44922-5.043 2.6914-9.3008 5.043-13.895 2.2422-4.1445 3.4727-8.7383 4.1445-13.555s0-10.082 0.55859-14.898c0.55859-5.0391 1.5664-9.6328 2.8008-14.449 0.55859-2.2422-2.5781-2.8008-3.4727-1.1211-2.4648 5.1523-5.375 9.9688-6.2734 15.684-0.10938 0.55859-0.22266 1.2305-0.33594 1.9023-3.0234 1.793-5.4883 4.8203-8.1758 7.0586-3.4727 2.8008-7.2812 5.2656-11.762 6.7227-4.1445 1.3438-9.3008 1.5664-13.555 0.67188-4.5938-0.89844-5.3789-4.1445-5.4922-7.8438 8.0664-1.5664 16.133-6.9453 22.406-11.762 7.5039-5.4883 12.211-14.004 19.043-20.387 3.3594-3.0234 7.168-5.9375 10.754-8.9609 4.0312-3.25 7.7305-6.832 11.762-10.305 6.9453-5.7148 16.914-10.305 20.836-19.043 0.89453-2.0156-1.793-3.25-3.1367-2.0156-1.9023 2.0117-3.918 3.4688-6.0469 5.0352v-0.22266c0-4.1445 1.2305-7.8398 2.2422-11.988 2.6875-10.531 4.7031-21.059 6.7227-31.477 1.9023-10.977 4.4766-21.508 6.9414-32.039 1.3438-5.1523 2.3516-10.418 3.6992-15.457 1.2305-4.3672 2.6875-9.6328 1.3438-14.004-0.67188-1.793-3.3633-1.793-3.9219-0.22266-0.67188 1.9023-0.89453 3.6953-1.3438 5.7109-0.67188 2.5781-1.6797 5.1523-2.4648 7.8438-1.457 4.5898-2.5781 9.1836-3.8086 13.777-2.6875 10.082-5.3789 20.164-7.5039 30.359-2.1289 9.6328-3.8086 19.492-6.2734 29.125-1.1211 4.3672-2.4648 8.9609-3.25 13.332-0.5625 2.6875 0.89453 6.6094-0.67188 8.7344-0.33594 0.67578-0.5625 1.3477-0.67188 2.0195-2.3555 1.3438-4.707 2.8008-7.0586 4.3672-3.9219 2.8008-7.5039 6.1602-10.977 9.4102-3.4727 3.0234-7.1719 5.9375-10.645 8.9609-6.832 6.1641-11.203 14.227-17.812 20.391-6.832 6.0469-15.793 10.641-24.645 12.883-1.457 0.44922-2.2422 2.2422-2.1289 3.4727 0.44922 5.4883 0.22656 10.305 5.043 14 4.8164 3.6953 11.426 3.4727 17.027 2.8008 5.9375-0.55859 10.977-2.5742 15.906-6.0469 2.5781-1.793 4.9297-3.6953 7.2812-5.7148-0.10938 2.0156-0.22266 3.9219-0.67188 5.9375-1.1211 5.9375-4.7031 10.531-6.7227 15.797-2.0156 5.2656-2.2422 10.754-2.4648 16.02-0.33203 6.0469-0.10938 12.098-0.33203 18.258-0.22266 5.9375-1.793 11.203 1.1211 16.578 2.3516 4.5938 6.4961 8.0664 11.312 9.6328 3.8086 1.3438 9.0742 0.89453 12.883-1.3438-0.78516 5.0391-0.44922 10.082 3.3594 13.777 4.4805 4.1445 16.355 10.754 22.293 5.4883 0.67188-0.78125 1.457-2.125 1.2305-3.2461 0.78516-1.3438 1.457-2.5781 1.9062-4.1445 3.0234 1.793 8.2891 1.1211 11.426 0 5.8242-1.9023 8.7383-7.6172 11.316-13.328 1.5664 1.1172 3.1328 2.0156 5.2617 2.0156 2.6875 0.22266 5.2656-0.67188 7.6172-2.2422 5.043-3.2461 8.0664-9.6328 10.867-14.898 3.8086-7.6172 7.7305-15.234 10.98-23.188 4.1445-9.6328 7.3945-19.715 11.203-29.574 3.3594-8.8516 5.7109-17.477 4.3672-27.223-0.67188-5.0391-2.3516-9.8555-3.4727-14.898-1.1211-5.2656-1.1211-10.977-0.78516-16.242 0.55859-10.305 3.1367-20.387 3.3594-30.805 0.11328-5.0391-0.44922-9.1875-1.793-13.777 0.89453-2.8008 1.0078-6.1602 1.5664-8.7383 0.67578-4.0352 1.7969-7.7344 2.8047-11.43 2.0156-7.6172 4.0312-15.348 6.832-22.742 5.4922-14.227 13.781-28.227 16.246-43.574 0.55859-3.4727-4.5938-5.043-6.0508-1.6797z"/>
  <path d="m353.86 228.75c7.3945-6.832 14.898-14.449 20.723-22.742 2.1289-3.0234-1.3438-6.9453-4.4805-4.8164-7.3906 5.2656-12.77 12.883-18.707 19.492-2.6875 3.0234-5.7109 5.8242-8.3984 9.1875-1.3438 1.5664-2.8008 3.0234-4.4805 4.1445-0.11328 0.22266-0.33984 0.44922-0.5625 0.44922-0.33594-0.22656-0.67188-0.44922-0.89453-0.89844-5.6016-5.7148-10.977-11.203-17.922-14.898-7.2852-4.1445-15.125-6.7227-22.184-11.09-3.1367-2.0156-6.2734-4.0352-9.1836-6.3867-2.9141-2.3516-4.2578-5.7148-5.9375-8.9609-3.5859-7.6172-9.8594-14.004-15.348-20.164-10.867-12.211-22.965-23.859-35.512-34.727-2.1289-1.793-4.707 1.457-2.6875 3.4727 11.988 11.203 23.414 23.188 33.605 36.07 4.9297 6.3867 10.195 12.66 13.555 19.941 3.4727 7.3945 8.9609 11.762 15.797 16.242 6.6094 3.9219 13.555 6.9453 20.5 10.305 7.5039 3.4727 13.219 8.5156 18.934 14.449 2.8008 2.8008 5.6016 5.4883 8.625 8.0664 2.6875 2.2422 5.7148 3.9219 8.2891 6.3867 2.3516 2.2422 3.25 5.2656 4.7031 7.8398 1.5664 2.8008 3.6953 5.7148 6.0508 7.8398-0.11328 0.22656-0.22656 0.45312-0.33984 0.56641-1.1211 1.5664-2.8008 2.3516-4.5938 2.8008-3.582 1.4531-7.5039 0.33594-10.75-1.2344-6.9453-3.25-12.547-8.9609-19.379-12.211-6.4961-3.0234-14.004-2.2422-20.836-0.67188-0.33594 0-0.78516 0.22266-1.3438 0.22266 1.6797-2.3516 3.6953-4.5938 5.4883-6.832 3.9219-4.3672 12.098-16.578 4.8164-21.621-1.793-1.1211-4.4805 0-4.1445 2.3516 0.33594 3.0234 0.78516 4.8164-0.44922 7.8398-1.2305 3.0234-3.3594 5.7148-5.4883 8.0664-5.2656 6.2773-9.0742 12.102-11.43 20.055-2.4648 7.6172-5.8242 16.355-10.641 22.965-2.1289 2.8008-5.0391 5.2656-8.625 5.9375-1.2344 0.33594-2.6875 0.22266-3.9219 0.22266-1.5664 0-1.6797-2.3516-2.0156-3.6953 0-0.44922-0.22266-0.67188-0.44922-0.89453 0.22656-0.67578 0.44922-1.3477 0.5625-2.0195 1.5664-5.7148 3.0234-11.203 4.3672-16.805 1.3438-6.1602 1.2305-11.988 2.0156-18.148 0.78516-6.1562 3.0273-11.871 3.9219-17.809 0.33594-2.8008-3.25-3.6953-4.5938-1.3438-4.4805 8.0664-5.1523 17.922-5.6016 26.887-0.44531 9.2969-3.4727 18.93-6.1602 27.445-2.1289 6.4961-5.7148 12.434-13.219 11.09-3.5859-0.5625-4.5938-3.4727-4.5938-6.7227 0.11328-2.4648 0.33594-4.8164 0.5625-7.2812 2.4648-4.1445 2.9141-10.082 3.25-14.227 0.78516-9.6328 4.7031-20.836-1.1211-29.574-1.3477-1.9023-4.0352-0.55859-4.0352 1.457 0.11328 3.6953 1.6797 7.168 2.1289 10.641 0.44922 3.9219-0.67188 7.8398-1.3438 11.648-0.33594 3.0234-0.22266 7.8398-1.1211 11.988-0.22266 0.22266-0.44922 0.44922-0.55859 1.1211-0.11328 0.44922-0.22266 1.1211-0.33594 1.793-0.89844 1.6797-2.2422 3.25-4.3711 3.6953-8.5117 1.9062-6.7188-10.082-6.0469-14.676 1.1211-7.8398 1.2305-16.02 3.0234-23.637 0.44922-2.0156-2.8008-2.8008-3.3594-1.1211-1.457 5.2656-3.25 10.082-4.0312 15.348-0.45313 3.25-0.78906 6.3867-1.2344 9.6367-0.55859-0.22266-1.2305 0-1.9062 0.44922-2.1289 1.4531-3.8086 3.0234-6.6094 2.5742-0.33594-0.22266-0.67188-0.22266-1.0078-0.44922-0.11328-1.1211-0.67188-2.2422-1.5664-2.8008 0.33594-0.44922 0.89453-0.89453 1.2305-1.1211 4.7031-5.0391 5.4883-11.426 7.6172-17.477 2.1289-6.1562 8.5156-10.527 8.0664-17.473 0-1.1211-0.55859-2.3516-1.0078-3.4727-0.5625-2.0156-0.78516-4.2578-0.89844-6.1602-0.33594-3.6953 0-7.168 0-10.977v-0.22266c0.44922-0.67188 1.2305-1.1211 1.9062-1.793 1.457-1.1211 2.9141-2.0156 4.2578-3.0234 2.1289-2.0156 0-5.0391-2.4648-3.6953-0.44922 0.21875-0.5625 0.21875-0.78516 0.21875-0.44922 0.22266-1.0078 0.67188-1.457 0.89453-1.3438 0.67187-2.5742 1.457-3.6953 2.3555-0.67188 0.67188-1.2344 1.3438-1.6797 2.0156-1.6797-0.89844-3.4727-2.4648-4.9297-3.3594-2.3516-1.457-4.8164-2.8008-7.0586-4.3711-5.3789-3.4727-9.7461-8.9609-14.34-13.555-9.4062-9.4102-18.707-19.043-27.781-28.676-1.1172-1.2344-3.4727 0.22266-2.2383 1.5664 9.1875 11.203 18.035 22.516 27.332 33.496 4.3672 5.0391 8.5156 10.754 14.227 14.227 2.5781 1.793 5.1523 3.0234 7.6172 4.8164 1.3438 0.89453 2.5781 1.793 4.0352 2.1289 0 3.6953 0 7.168 0.44922 10.977 0.22266 1.793 0.67188 3.6953 1.1211 5.4883 0.78125 2.5781 0.44531 3.9219-1.125 6.1641-2.3516 3.4727-4.7031 6.7188-6.0469 10.641-1.3438 4.3711-1.793 9.4102-4.5938 13.105-1.793 2.4648-3.9219 4.0352-4.7031 7.0586 0 0.22266 0 0.44922-0.11328 0.67188-3.1367 2.1289-7.0586 3.0234-10.641 3.6992-5.4883 1.1211-10.867 1.793-16.469 2.2422-13.777 0.89453-27.895-1.1211-41.449-3.25-2.3516-0.5625-2.9102 3.2461-0.55859 3.582 14.785 2.8008 29.125 7.6172 44.25 8.2891 5.7148 0.22266 11.426-0.67188 17.027-2.0156 4.5938-1.1211 8.9609-2.3516 12.77-5.0391 3.5859 2.2422 9.0742 2.0156 12.434-0.67188 0.11328 6.9453 4.5938 13.105 12.211 13.105 0.78516 0 1.457-0.22266 2.1289-0.44922-0.89844 5.4883-0.67188 10.641 4.1445 14.227 5.8242 4.1445 14.449 2.2422 18.934-2.8008 0.89453-1.0078 1.5664-2.0156 2.2383-3.1367 0.55859 1.3438 1.6797 2.2422 3.0234 2.8008 3.3633 1.5703 8.2891 0.67188 11.539-0.67188 9.2969-3.6953 13.219-14.898 16.691-23.188 1.793-4.3672 3.0234-8.9609 4.7031-13.332 0.11328 0 0.22266-0.22266 0.44922-0.22266 1.3438-0.44922 2.5781-0.89453 3.9219-1.3438 2.3516-0.44922 4.8164-0.67188 7.168-0.44922 2.3516 0 4.5938-0.44922 7.0586 0 2.1289 0.55859 4.0312 1.793 5.8242 2.6875 3.25 2.0156 6.2734 4.3672 9.4102 6.6094 6.0508 4.3672 12.66 7.8398 20.277 7.6172 3.8086-0.22266 7.7305-1.793 10.305-4.3672 2.3516-2.3516 4.9297-6.832 2.3516-9.6328-0.10937-0.22656-0.22266-0.44922-0.44531-0.44922-2.2422-3.0234-4.9297-5.7148-6.3867-9.1875-1.1211-3.0234-1.6797-5.4883-3.9219-8.0664-2.2422-2.3516-4.9297-4.1445-7.5039-6.1602-1.2344-1.1211-2.4648-2.1289-3.4727-3.0234 0.44922-0.44922 1.0078-0.67188 1.5664-1.1211 3.6992-2.1289 6.7227-6.1602 10.082-8.9609z"/>
  <path d="m565.36 259.78c-0.67188-4.1445-6.3867-4.3711-7.2812-0.22656-1.5664 7.168-1.793 14.227-2.2422 21.172-0.33594 7.7305-0.55859 15.461-1.2305 23.078-1.0078 14.898-2.6875 29.797-5.043 44.359-2.3516 14.453-4.7031 29.574-8.9609 43.801-1.9023 6.6094-4.8164 12.883-7.7305 19.27-2.9102 6.3867-5.4883 12.883-9.0703 18.82-1.5703 2.8008 3.0234 5.7109 4.7031 3.0234 3.9219-5.7148 6.9453-11.762 10.305-17.699 3.25-6.1602 6.6094-12.434 9.1875-18.82 5.4883-14.004 8.625-29.574 11.426-44.137 2.8008-15.121 4.3672-30.246 5.6016-45.48 0.55859-7.6172 1.0078-15.348 1.3438-22.965 0.11328-8.1758 0.44922-16.02-1.0078-24.195z"/>
 </g>
</svg>
